<svg width="109" height="32" viewBox="0 0 109 32" fill="none" xmlns="http://www.w3.org/2000/svg">
<path d="M13.8651 15.1071C17.8394 18.0075 18.522 22.9027 15.5 27.4155L13.8651 15.1071Z" fill="white"/>
<path d="M15.5526 27.416C15.3158 25.7572 14.3767 24.1187 12.1684 22.6399C10.7052 21.6601 9.12811 21.1794 7.564 21.1794C4.76048 21.1794 1.99754 22.7226 0.00104008 25.7031L0 25.7041H0.00104008C0.237789 27.3629 1.17698 29.0014 3.38525 30.4802C7.46982 33.2156 12.4421 32.061 15.5526 27.417L15.5536 27.416H15.5526ZM7.77786 27.4176C7.0879 27.4176 6.52907 26.8582 6.52907 26.1688C6.52907 25.4793 7.0879 24.92 7.77786 24.92C8.46781 24.92 9.02664 25.4793 9.02664 26.1688C9.02664 26.8582 8.46729 27.4176 7.77786 27.4176Z" fill="white"/>
<path d="M12.2782 11.0309L13.9131 23.3392C9.9388 20.4389 9.25613 15.5437 12.2782 11.0309Z" fill="white"/>
<path d="M5.95738 16.8336C1.98311 13.9333 1.30044 9.03804 4.32251 4.52524L5.95738 16.8336Z" fill="white"/>
<path d="M19.8745 6.23659C19.6377 4.57778 18.6985 2.93927 16.4903 1.4605C12.4057 -1.27486 7.43343 -0.120254 4.32291 4.52367C4.32239 4.52367 4.32239 4.52471 4.32239 4.52471H4.32291C4.55966 6.18352 5.49885 7.82203 7.70712 9.3008C9.17028 10.2806 10.7474 10.7614 12.3115 10.7614C15.115 10.7614 17.878 9.21807 19.8745 6.23763L19.8755 6.23659H19.8745ZM12.0966 6.60446C11.4067 6.60446 10.8478 6.04511 10.8478 5.35567C10.8478 4.66624 11.4067 4.10689 12.0966 4.10689C12.7866 4.10689 13.3454 4.66624 13.3454 5.35567C13.3454 6.04511 12.786 6.60446 12.0966 6.60446Z" fill="white"/>
<path d="M7.5438 20.9098L5.90894 8.60147C9.8832 11.5018 10.5659 16.397 7.5438 20.9098Z" fill="white"/>
<path d="M41.0035 20.9704H39.4915L37.8235 14.8384L35.3515 20.5144C35.1835 20.8864 34.9435 21.0904 34.5715 21.0904C34.2115 21.0904 33.9475 20.8864 33.7915 20.5144L31.3315 14.8384L29.6635 20.9704H28.1635L30.4075 12.7624C30.5155 12.3424 30.7555 12.1384 31.1635 12.1384C31.4875 12.1384 31.7875 12.3184 31.9315 12.6544L34.6195 18.8224L37.3075 12.6544C37.4515 12.3184 37.7155 12.1384 38.0395 12.1384C38.4115 12.1384 38.6515 12.3424 38.7715 12.7624L41.0035 20.9704ZM49.8143 20.9704H42.0143V12.2464H49.8023V13.7704H43.5263V19.4464H49.8143V20.9704ZM49.4783 17.1784H44.6423V15.8944H49.4783V17.1784ZM58.9198 20.9704H51.1198V12.2464H58.9078V13.7704H52.6318V19.4464H58.9198V20.9704ZM58.5838 17.1784H53.7478V15.8944H58.5838V17.1784ZM64.5452 20.9704H63.0212V13.7704H59.7092V12.2464H67.8572V13.7704H64.5452V20.9704ZM69.1346 20.2504C69.1346 20.7064 68.7746 21.0664 68.3066 21.0664C67.8506 21.0664 67.5026 20.7064 67.5026 20.2504C67.5026 19.7944 67.8506 19.4344 68.3066 19.4344C68.7746 19.4344 69.1346 19.7944 69.1346 20.2504ZM77.8912 20.9704H70.7632V12.2464H71.5792V20.1664H77.8912V20.9704ZM85.6681 20.9704H79.2241V20.1664H85.6681C86.7961 20.1664 87.3721 19.4704 87.3721 18.5104C87.3721 17.4304 86.7721 16.9024 85.6681 16.9024H81.5281C80.0161 16.9024 79.0921 15.9184 79.0921 14.5624C79.0921 13.2424 79.9561 12.2464 81.5401 12.2464H87.7321V13.0504H81.5401C80.5081 13.0504 79.9321 13.7104 79.9321 14.6104C79.9321 15.5464 80.5441 16.1464 81.5281 16.1464H85.6681C87.2881 16.1464 88.1401 16.9384 88.1401 18.5344C88.1401 19.9264 87.3361 20.9704 85.6681 20.9704ZM98.1007 20.9704H93.5407C91.1767 20.9704 89.4487 19.0504 89.4487 16.5184C89.4487 13.9504 91.1767 12.2464 93.5407 12.2464H98.1007V13.0504H93.5407C91.6447 13.0504 90.2647 14.4784 90.2647 16.5544C90.2647 18.6184 91.6447 20.1664 93.5407 20.1664H98.1007V20.9704ZM107.836 21.0544H107.008V16.9024H101.548V16.1464H107.008V12.2464H107.836V21.0544ZM100.396 21.0544H99.5796V12.2464H100.396V21.0544Z" fill="white"/>
</svg>
