<svg width="109" height="32" viewBox="0 0 109 32" fill="none" xmlns="http://www.w3.org/2000/svg">
<path d="M15.5795 27.0645L14.0283 15.3864C15.8454 16.7972 16.9091 18.6456 17.1823 20.6733C17.4553 22.7001 16.9397 24.9163 15.5795 27.0645Z" fill="#BEAEE2" stroke="black" stroke-width="0.25"/>
<path d="M15.5526 27.416C15.3158 25.7572 14.3767 24.1187 12.1684 22.6399C10.7052 21.6601 9.12811 21.1794 7.564 21.1794C4.76048 21.1794 1.99754 22.7226 0.00104008 25.7031L0 25.7041H0.00104008C0.237789 27.3629 1.17698 29.0014 3.38525 30.4802C7.46982 33.2156 12.4421 32.061 15.5526 27.417L15.5536 27.416H15.5526ZM7.77786 27.4176C7.0879 27.4176 6.52907 26.8582 6.52907 26.1688C6.52907 25.4793 7.0879 24.92 7.77786 24.92C8.46781 24.92 9.02664 25.4793 9.02664 26.1688C9.02664 26.8582 8.46729 27.4176 7.77786 27.4176Z" fill="white"/>
<path d="M10.5959 17.7731C10.3229 15.7463 10.8384 13.5301 12.1987 11.3819L13.7499 23.06C11.9328 21.6492 10.869 19.8008 10.5959 17.7731Z" fill="#CDF0EA" stroke="black" stroke-width="0.25"/>
<path d="M4.24303 4.87625L5.79418 16.5543C3.97713 15.1435 2.91336 13.2951 2.6402 11.2674C2.36717 9.24069 2.88276 7.02447 4.24303 4.87625Z" fill="#BEAEE2" stroke="black" stroke-width="0.25"/>
<path d="M19.8745 6.23659C19.6377 4.57778 18.6985 2.93927 16.4903 1.4605C12.4057 -1.27486 7.43343 -0.120254 4.32291 4.52367C4.32239 4.52367 4.32239 4.52471 4.32239 4.52471H4.32291C4.55966 6.18351 5.49885 7.82203 7.70712 9.3008C9.17028 10.2806 10.7474 10.7614 12.3115 10.7614C15.115 10.7614 17.878 9.21807 19.8745 6.23763L19.8755 6.23659H19.8745ZM12.0966 6.60446C11.4067 6.60446 10.8478 6.04511 10.8478 5.35567C10.8478 4.66624 11.4067 4.10689 12.0966 4.10689C12.7866 4.10689 13.3454 4.66624 13.3454 5.35567C13.3454 6.04511 12.786 6.60446 12.0966 6.60446Z" fill="white"/>
<path d="M9.22611 14.1676C9.49914 16.1944 8.98355 18.4106 7.62328 20.5588L6.07213 8.88075C7.88918 10.2915 8.95296 12.14 9.22611 14.1676Z" fill="#CDF0EA" stroke="black" stroke-width="0.25"/>
<mask id="path-7-outside-1_223_220" maskUnits="userSpaceOnUse" x="26.8755" y="10.9704" width="82" height="11" fill="black">
<rect fill="white" x="26.8755" y="10.9704" width="82" height="11"/>
<path d="M41.0035 20.9704H39.4915L37.8235 14.8384L35.3515 20.5144C35.1835 20.8864 34.9435 21.0904 34.5715 21.0904C34.2115 21.0904 33.9475 20.8864 33.7915 20.5144L31.3315 14.8384L29.6635 20.9704H28.1635L30.4075 12.7624C30.5155 12.3424 30.7555 12.1384 31.1635 12.1384C31.4875 12.1384 31.7875 12.3184 31.9315 12.6544L34.6195 18.8224L37.3075 12.6544C37.4515 12.3184 37.7155 12.1384 38.0395 12.1384C38.4115 12.1384 38.6515 12.3424 38.7715 12.7624L41.0035 20.9704ZM64.5452 20.9704H63.0212V13.7704H59.7092V12.2464H67.8572V13.7704H64.5452V20.9704Z"/>
<path d="M49.8143 20.9704H42.0143V12.2464H49.8023V13.7704H43.5263V19.4464H49.8143V20.9704ZM49.4783 17.1784H44.6423V15.8944H49.4783V17.1784ZM58.9198 20.9704H51.1198V12.2464H58.9078V13.7704H52.6318V19.4464H58.9198V20.9704ZM58.5838 17.1784H53.7478V15.8944H58.5838V17.1784Z"/>
<path d="M69.1346 20.2504C69.1346 20.7064 68.7746 21.0664 68.3066 21.0664C67.8506 21.0664 67.5026 20.7064 67.5026 20.2504C67.5026 19.7944 67.8506 19.4344 68.3066 19.4344C68.7746 19.4344 69.1346 19.7944 69.1346 20.2504ZM77.8192 20.9704H70.8232V12.2464H71.2912V20.5144H77.8192V20.9704ZM85.6684 20.9704H79.2724V20.5144H85.6684C86.9404 20.5144 87.5884 19.6984 87.5884 18.5944C87.5884 17.3344 86.9164 16.7464 85.6684 16.7464H81.4564C80.0164 16.7464 79.1404 15.8224 79.1404 14.5024C79.1404 13.2184 79.9564 12.2464 81.4684 12.2464H87.6244V12.7144H81.4684C80.2684 12.7144 79.6204 13.4824 79.6204 14.5264C79.6204 15.5944 80.3164 16.3024 81.4564 16.3024H85.6684C87.2044 16.3024 88.0324 17.0464 88.0324 18.6064C88.0324 19.9624 87.2524 20.9704 85.6684 20.9704ZM97.9461 20.9704H93.4701C91.1421 20.9704 89.4501 19.0504 89.4501 16.5184C89.4501 13.9504 91.1421 12.2464 93.4701 12.2464H97.9461V12.7144H93.4701C91.4181 12.7144 89.9181 14.2504 89.9181 16.5424C89.9181 18.7984 91.4181 20.5144 93.4701 20.5144H97.9461V20.9704ZM107.646 21.0784H107.178V16.7464H101.19V16.3024H107.178V12.2464H107.646V21.0784ZM100.014 21.0784H99.5459V12.2464H100.014V21.0784Z"/>
</mask>
<path d="M41.0035 20.9704H39.4915L37.8235 14.8384L35.3515 20.5144C35.1835 20.8864 34.9435 21.0904 34.5715 21.0904C34.2115 21.0904 33.9475 20.8864 33.7915 20.5144L31.3315 14.8384L29.6635 20.9704H28.1635L30.4075 12.7624C30.5155 12.3424 30.7555 12.1384 31.1635 12.1384C31.4875 12.1384 31.7875 12.3184 31.9315 12.6544L34.6195 18.8224L37.3075 12.6544C37.4515 12.3184 37.7155 12.1384 38.0395 12.1384C38.4115 12.1384 38.6515 12.3424 38.7715 12.7624L41.0035 20.9704ZM64.5452 20.9704H63.0212V13.7704H59.7092V12.2464H67.8572V13.7704H64.5452V20.9704Z" fill="#BEAEE2"/>
<path d="M49.8143 20.9704H42.0143V12.2464H49.8023V13.7704H43.5263V19.4464H49.8143V20.9704ZM49.4783 17.1784H44.6423V15.8944H49.4783V17.1784ZM58.9198 20.9704H51.1198V12.2464H58.9078V13.7704H52.6318V19.4464H58.9198V20.9704ZM58.5838 17.1784H53.7478V15.8944H58.5838V17.1784Z" fill="#CDF0EA"/>
<path d="M69.1346 20.2504C69.1346 20.7064 68.7746 21.0664 68.3066 21.0664C67.8506 21.0664 67.5026 20.7064 67.5026 20.2504C67.5026 19.7944 67.8506 19.4344 68.3066 19.4344C68.7746 19.4344 69.1346 19.7944 69.1346 20.2504ZM77.8192 20.9704H70.8232V12.2464H71.2912V20.5144H77.8192V20.9704ZM85.6684 20.9704H79.2724V20.5144H85.6684C86.9404 20.5144 87.5884 19.6984 87.5884 18.5944C87.5884 17.3344 86.9164 16.7464 85.6684 16.7464H81.4564C80.0164 16.7464 79.1404 15.8224 79.1404 14.5024C79.1404 13.2184 79.9564 12.2464 81.4684 12.2464H87.6244V12.7144H81.4684C80.2684 12.7144 79.6204 13.4824 79.6204 14.5264C79.6204 15.5944 80.3164 16.3024 81.4564 16.3024H85.6684C87.2044 16.3024 88.0324 17.0464 88.0324 18.6064C88.0324 19.9624 87.2524 20.9704 85.6684 20.9704ZM97.9461 20.9704H93.4701C91.1421 20.9704 89.4501 19.0504 89.4501 16.5184C89.4501 13.9504 91.1421 12.2464 93.4701 12.2464H97.9461V12.7144H93.4701C91.4181 12.7144 89.9181 14.2504 89.9181 16.5424C89.9181 18.7984 91.4181 20.5144 93.4701 20.5144H97.9461V20.9704ZM107.646 21.0784H107.178V16.7464H101.19V16.3024H107.178V12.2464H107.646V21.0784ZM100.014 21.0784H99.5459V12.2464H100.014V21.0784Z" fill="white"/>
<path d="M41.0035 20.9704V21.2204H41.3306L41.2447 20.9048L41.0035 20.9704ZM39.4915 20.9704L39.2503 21.036L39.3004 21.2204H39.4915V20.9704ZM37.8235 14.8384L38.0647 14.7727L37.8781 14.0868L37.5943 14.7385L37.8235 14.8384ZM35.3515 20.5144L35.5794 20.6173L35.5807 20.6142L35.3515 20.5144ZM33.7915 20.5144L34.0221 20.4177L34.0209 20.415L33.7915 20.5144ZM31.3315 14.8384L31.5609 14.739L31.2774 14.0848L31.0903 14.7727L31.3315 14.8384ZM29.6635 20.9704V21.2204H29.8546L29.9047 21.036L29.6635 20.9704ZM28.1635 20.9704L27.9223 20.9044L27.836 21.2204H28.1635V20.9704ZM30.4075 12.7624L30.6487 12.8283L30.6496 12.8246L30.4075 12.7624ZM31.9315 12.6544L31.7017 12.7528L31.7023 12.7542L31.9315 12.6544ZM34.6195 18.8224L34.3903 18.9222L34.6195 19.4481L34.8487 18.9222L34.6195 18.8224ZM37.3075 12.6544L37.5367 12.7542L37.5373 12.7528L37.3075 12.6544ZM38.7715 12.7624L39.0127 12.6968L39.0119 12.6937L38.7715 12.7624ZM41.0035 20.7204H39.4915V21.2204H41.0035V20.7204ZM39.7327 20.9047L38.0647 14.7727L37.5823 14.904L39.2503 21.036L39.7327 20.9047ZM37.5943 14.7385L35.1223 20.4145L35.5807 20.6142L38.0527 14.9382L37.5943 14.7385ZM35.1236 20.4115C35.0502 20.5742 34.9702 20.679 34.8861 20.7433C34.8063 20.8043 34.7079 20.8404 34.5715 20.8404V21.3404C34.807 21.3404 35.0147 21.2744 35.1899 21.1405C35.3608 21.0097 35.4848 20.8265 35.5793 20.6173L35.1236 20.4115ZM34.5715 20.8404C34.4416 20.8404 34.339 20.8046 34.2546 20.7416C34.168 20.6768 34.0872 20.573 34.022 20.4177L33.5609 20.611C33.6518 20.8277 33.781 21.0119 33.9554 21.1421C34.132 21.2741 34.3414 21.3404 34.5715 21.3404V20.8404ZM34.0209 20.415L31.5609 14.739L31.1021 14.9378L33.5621 20.6138L34.0209 20.415ZM31.0903 14.7727L29.4223 20.9047L29.9047 21.036L31.5727 14.904L31.0903 14.7727ZM29.6635 20.7204H28.1635V21.2204H29.6635V20.7204ZM28.4046 21.0363L30.6486 12.8283L30.1663 12.6964L27.9223 20.9044L28.4046 21.0363ZM30.6496 12.8246C30.6953 12.6468 30.7614 12.5444 30.8328 12.4851C30.9017 12.4278 31.0023 12.3884 31.1635 12.3884V11.8884C30.9167 11.8884 30.6933 11.9509 30.5132 12.1006C30.3355 12.2483 30.2276 12.458 30.1654 12.7001L30.6496 12.8246ZM31.1635 12.3884C31.3896 12.3884 31.5979 12.5107 31.7017 12.7528L32.1613 12.5559C31.977 12.126 31.5853 11.8884 31.1635 11.8884V12.3884ZM31.7023 12.7542L34.3903 18.9222L34.8487 18.7225L32.1607 12.5545L31.7023 12.7542ZM34.8487 18.9222L37.5367 12.7542L37.0783 12.5545L34.3903 18.7225L34.8487 18.9222ZM37.5373 12.7528C37.6462 12.4987 37.826 12.3884 38.0395 12.3884V11.8884C37.6049 11.8884 37.2568 12.1381 37.0777 12.5559L37.5373 12.7528ZM38.0395 12.3884C38.177 12.3884 38.2693 12.4247 38.3379 12.4832C38.4102 12.5448 38.4797 12.6512 38.5311 12.831L39.0119 12.6937C38.9433 12.4536 38.8328 12.2479 38.6621 12.1026C38.4877 11.954 38.274 11.8884 38.0395 11.8884V12.3884ZM38.5302 12.828L40.7622 21.036L41.2447 20.9048L39.0127 12.6968L38.5302 12.828ZM49.8143 20.9704V21.2204H50.0643V20.9704H49.8143ZM42.0143 20.9704H41.7643V21.2204H42.0143V20.9704ZM42.0143 12.2464V11.9964H41.7643V12.2464H42.0143ZM49.8023 12.2464H50.0523V11.9964H49.8023V12.2464ZM49.8023 13.7704V14.0204H50.0523V13.7704H49.8023ZM43.5263 13.7704V13.5204H43.2763V13.7704H43.5263ZM43.5263 19.4464H43.2763V19.6964H43.5263V19.4464ZM49.8143 19.4464H50.0643V19.1964H49.8143V19.4464ZM49.4783 17.1784V17.4284H49.7283V17.1784H49.4783ZM44.6423 17.1784H44.3923V17.4284H44.6423V17.1784ZM44.6423 15.8944V15.6444H44.3923V15.8944H44.6423ZM49.4783 15.8944H49.7283V15.6444H49.4783V15.8944ZM49.8143 20.7204H42.0143V21.2204H49.8143V20.7204ZM42.2643 20.9704V12.2464H41.7643V20.9704H42.2643ZM42.0143 12.4964H49.8023V11.9964H42.0143V12.4964ZM49.5523 12.2464V13.7704H50.0523V12.2464H49.5523ZM49.8023 13.5204H43.5263V14.0204H49.8023V13.5204ZM43.2763 13.7704V19.4464H43.7763V13.7704H43.2763ZM43.5263 19.6964H49.8143V19.1964H43.5263V19.6964ZM49.5643 19.4464V20.9704H50.0643V19.4464H49.5643ZM49.4783 16.9284H44.6423V17.4284H49.4783V16.9284ZM44.8923 17.1784V15.8944H44.3923V17.1784H44.8923ZM44.6423 16.1444H49.4783V15.6444H44.6423V16.1444ZM49.2283 15.8944V17.1784H49.7283V15.8944H49.2283ZM58.9198 20.9704V21.2204H59.1698V20.9704H58.9198ZM51.1198 20.9704H50.8698V21.2204H51.1198V20.9704ZM51.1198 12.2464V11.9964H50.8698V12.2464H51.1198ZM58.9078 12.2464H59.1578V11.9964H58.9078V12.2464ZM58.9078 13.7704V14.0204H59.1578V13.7704H58.9078ZM52.6318 13.7704V13.5204H52.3818V13.7704H52.6318ZM52.6318 19.4464H52.3818V19.6964H52.6318V19.4464ZM58.9198 19.4464H59.1698V19.1964H58.9198V19.4464ZM58.5838 17.1784V17.4284H58.8338V17.1784H58.5838ZM53.7478 17.1784H53.4978V17.4284H53.7478V17.1784ZM53.7478 15.8944V15.6444H53.4978V15.8944H53.7478ZM58.5838 15.8944H58.8338V15.6444H58.5838V15.8944ZM58.9198 20.7204H51.1198V21.2204H58.9198V20.7204ZM51.3698 20.9704V12.2464H50.8698V20.9704H51.3698ZM51.1198 12.4964H58.9078V11.9964H51.1198V12.4964ZM58.6578 12.2464V13.7704H59.1578V12.2464H58.6578ZM58.9078 13.5204H52.6318V14.0204H58.9078V13.5204ZM52.3818 13.7704V19.4464H52.8818V13.7704H52.3818ZM52.6318 19.6964H58.9198V19.1964H52.6318V19.6964ZM58.6698 19.4464V20.9704H59.1698V19.4464H58.6698ZM58.5838 16.9284H53.7478V17.4284H58.5838V16.9284ZM53.9978 17.1784V15.8944H53.4978V17.1784H53.9978ZM53.7478 16.1444H58.5838V15.6444H53.7478V16.1444ZM58.3338 15.8944V17.1784H58.8338V15.8944H58.3338ZM64.5452 20.9704V21.2204H64.7952V20.9704H64.5452ZM63.0212 20.9704H62.7712V21.2204H63.0212V20.9704ZM63.0212 13.7704H63.2712V13.5204H63.0212V13.7704ZM59.7092 13.7704H59.4592V14.0204H59.7092V13.7704ZM59.7092 12.2464V11.9964H59.4592V12.2464H59.7092ZM67.8572 12.2464H68.1072V11.9964H67.8572V12.2464ZM67.8572 13.7704V14.0204H68.1072V13.7704H67.8572ZM64.5452 13.7704V13.5204H64.2952V13.7704H64.5452ZM64.5452 20.7204H63.0212V21.2204H64.5452V20.7204ZM63.2712 20.9704V13.7704H62.7712V20.9704H63.2712ZM63.0212 13.5204H59.7092V14.0204H63.0212V13.5204ZM59.9592 13.7704V12.2464H59.4592V13.7704H59.9592ZM59.7092 12.4964H67.8572V11.9964H59.7092V12.4964ZM67.6072 12.2464V13.7704H68.1072V12.2464H67.6072ZM67.8572 13.5204H64.5452V14.0204H67.8572V13.5204ZM64.2952 13.7704V20.9704H64.7952V13.7704H64.2952ZM68.8846 20.2504C68.8846 20.5659 68.6389 20.8164 68.3066 20.8164V21.3164C68.9103 21.3164 69.3846 20.8468 69.3846 20.2504H68.8846ZM68.3066 20.8164C67.9935 20.8164 67.7526 20.5732 67.7526 20.2504H67.2526C67.2526 20.8396 67.7077 21.3164 68.3066 21.3164V20.8164ZM67.7526 20.2504C67.7526 19.9276 67.9935 19.6844 68.3066 19.6844V19.1844C67.7077 19.1844 67.2526 19.6612 67.2526 20.2504H67.7526ZM68.3066 19.6844C68.6389 19.6844 68.8846 19.9348 68.8846 20.2504H69.3846C69.3846 19.6539 68.9103 19.1844 68.3066 19.1844V19.6844ZM77.8192 20.9704V21.2204H78.0692V20.9704H77.8192ZM70.8232 20.9704H70.5732V21.2204H70.8232V20.9704ZM70.8232 12.2464V11.9964H70.5732V12.2464H70.8232ZM71.2912 12.2464H71.5412V11.9964H71.2912V12.2464ZM71.2912 20.5144H71.0412V20.7644H71.2912V20.5144ZM77.8192 20.5144H78.0692V20.2644H77.8192V20.5144ZM77.8192 20.7204H70.8232V21.2204H77.8192V20.7204ZM71.0732 20.9704V12.2464H70.5732V20.9704H71.0732ZM70.8232 12.4964H71.2912V11.9964H70.8232V12.4964ZM71.0412 12.2464V20.5144H71.5412V12.2464H71.0412ZM71.2912 20.7644H77.8192V20.2644H71.2912V20.7644ZM77.5692 20.5144V20.9704H78.0692V20.5144H77.5692ZM79.2724 20.9704H79.0224V21.2204H79.2724V20.9704ZM79.2724 20.5144V20.2644H79.0224V20.5144H79.2724ZM87.6244 12.2464H87.8744V11.9964H87.6244V12.2464ZM87.6244 12.7144V12.9644H87.8744V12.7144H87.6244ZM85.6684 20.7204H79.2724V21.2204H85.6684V20.7204ZM79.5224 20.9704V20.5144H79.0224V20.9704H79.5224ZM79.2724 20.7644H85.6684V20.2644H79.2724V20.7644ZM85.6684 20.7644C86.36 20.7644 86.911 20.5408 87.2877 20.1395C87.662 19.7407 87.8384 19.1941 87.8384 18.5944H87.3384C87.3384 19.0987 87.1909 19.512 86.9231 19.7973C86.6579 20.0799 86.2488 20.2644 85.6684 20.2644V20.7644ZM87.8384 18.5944C87.8384 17.9216 87.6583 17.3828 87.2676 17.0157C86.8799 16.6513 86.3274 16.4964 85.6684 16.4964V16.9964C86.2575 16.9964 86.6649 17.1354 86.9252 17.38C87.1826 17.6219 87.3384 18.0072 87.3384 18.5944H87.8384ZM85.6684 16.4964H81.4564V16.9964H85.6684V16.4964ZM81.4564 16.4964C80.791 16.4964 80.2792 16.284 79.9345 15.9419C79.5897 15.5997 79.3904 15.1061 79.3904 14.5024H78.8904C78.8904 15.2187 79.1292 15.8471 79.5823 16.2968C80.0356 16.7467 80.6818 16.9964 81.4564 16.9964V16.4964ZM79.3904 14.5024C79.3904 13.9132 79.5769 13.416 79.9165 13.0673C80.2547 12.7201 80.7678 12.4964 81.4684 12.4964V11.9964C80.6571 11.9964 80.0062 12.2586 79.5583 12.7184C79.1119 13.1768 78.8904 13.8076 78.8904 14.5024H79.3904ZM81.4684 12.4964H87.6244V11.9964H81.4684V12.4964ZM87.3744 12.2464V12.7144H87.8744V12.2464H87.3744ZM87.6244 12.4644H81.4684V12.9644H87.6244V12.4644ZM81.4684 12.4644C80.8133 12.4644 80.282 12.6755 79.9147 13.055C79.5491 13.433 79.3704 13.953 79.3704 14.5264H79.8704C79.8704 14.0557 80.0158 13.6697 80.2741 13.4027C80.5309 13.1373 80.9235 12.9644 81.4684 12.9644V12.4644ZM79.3704 14.5264C79.3704 15.1158 79.5637 15.6282 79.9358 15.9933C80.3077 16.3581 80.8341 16.5524 81.4564 16.5524V16.0524C80.9387 16.0524 80.5471 15.8926 80.286 15.6364C80.0252 15.3805 79.8704 15.0049 79.8704 14.5264H79.3704ZM81.4564 16.5524H85.6684V16.0524H81.4564V16.5524ZM85.6684 16.5524C86.3998 16.5524 86.9181 16.7296 87.2538 17.0502C87.5874 17.3687 87.7824 17.8688 87.7824 18.6064H88.2824C88.2824 17.7839 88.0635 17.132 87.5991 16.6886C87.1368 16.2471 86.473 16.0524 85.6684 16.0524V16.5524ZM87.7824 18.6064C87.7824 19.238 87.6011 19.7622 87.2616 20.1264C86.9247 20.4876 86.4053 20.7204 85.6684 20.7204V21.2204C86.5156 21.2204 87.1781 20.9491 87.6273 20.4674C88.0737 19.9885 88.2824 19.3308 88.2824 18.6064H87.7824ZM97.9461 20.9704V21.2204H98.1961V20.9704H97.9461ZM97.9461 12.2464H98.1961V11.9964H97.9461V12.2464ZM97.9461 12.7144V12.9644H98.1961V12.7144H97.9461ZM97.9461 20.5144H98.1961V20.2644H97.9461V20.5144ZM97.9461 20.7204H93.4701V21.2204H97.9461V20.7204ZM93.4701 20.7204C91.3052 20.7204 89.7001 18.9387 89.7001 16.5184H89.2001C89.2001 19.162 90.979 21.2204 93.4701 21.2204V20.7204ZM89.7001 16.5184C89.7001 15.2901 90.1039 14.2867 90.7678 13.5921C91.4313 12.898 92.3693 12.4964 93.4701 12.4964V11.9964C92.2429 11.9964 91.171 12.4467 90.4064 13.2466C89.6423 14.046 89.2001 15.1786 89.2001 16.5184H89.7001ZM93.4701 12.4964H97.9461V11.9964H93.4701V12.4964ZM97.6961 12.2464V12.7144H98.1961V12.2464H97.6961ZM97.9461 12.4644H93.4701V12.9644H97.9461V12.4644ZM93.4701 12.4644C92.3792 12.4644 91.424 12.874 90.7426 13.5975C90.0619 14.3202 89.6681 15.3412 89.6681 16.5424H90.1681C90.1681 15.4516 90.5243 14.5585 91.1066 13.9403C91.6882 13.3228 92.509 12.9644 93.4701 12.9644V12.4644ZM89.6681 16.5424C89.6681 18.9077 91.253 20.7644 93.4701 20.7644V20.2644C91.5832 20.2644 90.1681 18.689 90.1681 16.5424H89.6681ZM93.4701 20.7644H97.9461V20.2644H93.4701V20.7644ZM97.6961 20.5144V20.9704H98.1961V20.5144H97.6961ZM107.646 21.0784V21.3284H107.896V21.0784H107.646ZM107.178 21.0784H106.928V21.3284H107.178V21.0784ZM107.178 16.7464H107.428V16.4964H107.178V16.7464ZM101.19 16.7464H100.94V16.9964H101.19V16.7464ZM101.19 16.3024V16.0524H100.94V16.3024H101.19ZM107.178 16.3024V16.5524H107.428V16.3024H107.178ZM107.178 12.2464V11.9964H106.928V12.2464H107.178ZM107.646 12.2464H107.896V11.9964H107.646V12.2464ZM100.014 21.0784V21.3284H100.264V21.0784H100.014ZM99.5459 21.0784H99.2959V21.3284H99.5459V21.0784ZM99.5459 12.2464V11.9964H99.2959V12.2464H99.5459ZM100.014 12.2464H100.264V11.9964H100.014V12.2464ZM107.646 20.8284H107.178V21.3284H107.646V20.8284ZM107.428 21.0784V16.7464H106.928V21.0784H107.428ZM107.178 16.4964H101.19V16.9964H107.178V16.4964ZM101.44 16.7464V16.3024H100.94V16.7464H101.44ZM101.19 16.5524H107.178V16.0524H101.19V16.5524ZM107.428 16.3024V12.2464H106.928V16.3024H107.428ZM107.178 12.4964H107.646V11.9964H107.178V12.4964ZM107.396 12.2464V21.0784H107.896V12.2464H107.396ZM100.014 20.8284H99.5459V21.3284H100.014V20.8284ZM99.7959 21.0784V12.2464H99.2959V21.0784H99.7959ZM99.5459 12.4964H100.014V11.9964H99.5459V12.4964ZM99.7639 12.2464V21.0784H100.264V12.2464H99.7639Z" fill="black" mask="url(#path-7-outside-1_223_220)"/>
</svg>
